<svg width="70" height="70" viewBox="0 0 70 70" fill="none" xmlns="http://www.w3.org/2000/svg">
<path d="M13.545 14H59.92C64.295 14 66.5 16.065 66.5 20.265V49.735C66.5 53.9 64.295 56 59.92 56H13.545C9.17 56 6.965 53.9 6.965 49.735V20.265C6.965 16.065 9.17 14 13.545 14ZM36.715 44.1L60.305 24.745C61.145 24.045 61.81 22.435 60.76 21C59.745 19.565 57.89 19.53 56.665 20.405L36.715 33.915L16.8 20.405C15.575 19.53 13.72 19.565 12.705 21C11.655 22.435 12.32 24.045 13.16 24.745L36.715 44.1Z" fill="#1B1B1B"/>
</svg>
