<svg width="70" height="70" viewBox="0 0 70 70" fill="none" xmlns="http://www.w3.org/2000/svg">
<path fill-rule="evenodd" clip-rule="evenodd" d="M21.7729 3.109C25.1942 2.9515 26.285 2.9165 35 2.9165C43.715 2.9165 44.8058 2.95442 48.2242 3.109C51.6425 3.26359 53.9758 3.809 56.0175 4.59942C58.1554 5.40734 60.095 6.67025 61.6992 8.30359C63.3325 9.90484 64.5925 11.8415 65.3975 13.9823C66.1908 16.024 66.7333 18.3573 66.8908 21.7698C67.0483 25.1969 67.0833 26.2878 67.0833 34.9998C67.0833 43.7148 67.0454 44.8057 66.8908 48.2269C66.7362 51.6394 66.1908 53.9728 65.3975 56.0144C64.5925 58.1555 63.3304 60.0954 61.6992 61.699C60.095 63.3323 58.1554 64.5923 56.0175 65.3973C53.9758 66.1907 51.6425 66.7332 48.23 66.8907C44.8058 67.0482 43.715 67.0832 35 67.0832C26.285 67.0832 25.1942 67.0452 21.7729 66.8907C18.3604 66.7361 16.0271 66.1907 13.9854 65.3973C11.8443 64.5922 9.90447 63.3302 8.30082 61.699C6.6686 60.0968 5.40549 58.1578 4.59957 56.0173C3.80916 53.9757 3.26666 51.6423 3.10916 48.2298C2.95166 44.8027 2.91666 43.7119 2.91666 34.9998C2.91666 26.2848 2.95457 25.194 3.10916 21.7757C3.26374 18.3573 3.80916 16.024 4.59957 13.9823C5.40668 11.8417 6.67075 9.90283 8.30374 8.30067C9.90511 6.6688 11.843 5.40571 13.9825 4.59942C16.0242 3.809 18.3575 3.2665 21.77 3.109H21.7729ZM47.9646 8.884C44.5812 8.72942 43.5662 8.69734 35 8.69734C26.4337 8.69734 25.4187 8.72942 22.0354 8.884C18.9058 9.02692 17.2083 9.549 16.0767 9.98942C14.5804 10.5728 13.51 11.264 12.3871 12.3869C11.3226 13.4225 10.5034 14.6832 9.98957 16.0765C9.54916 17.2082 9.02707 18.9057 8.88416 22.0353C8.72957 25.4186 8.69749 26.4336 8.69749 34.9998C8.69749 43.5661 8.72957 44.5811 8.88416 47.9644C9.02707 51.094 9.54916 52.7915 9.98957 53.9232C10.5029 55.3144 11.3225 56.5773 12.3871 57.6128C13.4225 58.6773 14.6854 59.4969 16.0767 60.0103C17.2083 60.4507 18.9058 60.9728 22.0354 61.1157C25.4187 61.2703 26.4308 61.3023 35 61.3023C43.5692 61.3023 44.5812 61.2703 47.9646 61.1157C51.0942 60.9728 52.7917 60.4507 53.9233 60.0103C55.4196 59.4269 56.49 58.7357 57.6129 57.6128C58.6775 56.5773 59.4971 55.3144 60.0104 53.9232C60.4508 52.7915 60.9729 51.094 61.1158 47.9644C61.2704 44.5811 61.3025 43.5661 61.3025 34.9998C61.3025 26.4336 61.2704 25.4186 61.1158 22.0353C60.9729 18.9057 60.4508 17.2082 60.0104 16.0765C59.4271 14.5803 58.7358 13.5098 57.6129 12.3869C56.5773 11.3225 55.3166 10.5034 53.9233 9.98942C52.7917 9.549 51.0942 9.02692 47.9646 8.884ZM30.9021 44.8903C33.1907 45.8429 35.739 45.9715 38.1119 45.254C40.4847 44.5365 42.5349 43.0175 43.9122 40.9564C45.2895 38.8952 45.9085 36.4199 45.6635 33.9531C45.4184 31.4862 44.3246 29.181 42.5687 27.4311C41.4494 26.3125 40.096 25.456 38.606 24.9232C37.1159 24.3904 35.5262 24.1946 33.9514 24.35C32.3766 24.5053 30.8559 25.0079 29.4986 25.8215C28.1413 26.6351 26.9813 27.7395 26.1021 29.0552C25.2229 30.371 24.6464 31.8653 24.414 33.4306C24.1816 34.9958 24.2992 36.5932 24.7582 38.1076C25.2173 39.622 26.0064 41.0158 27.0688 42.1886C28.1311 43.3614 29.4403 44.2841 30.9021 44.8903ZM23.3392 23.339C24.8705 21.8077 26.6884 20.593 28.6892 19.7642C30.69 18.9355 32.8344 18.5089 35 18.5089C37.1656 18.5089 39.31 18.9355 41.3108 19.7642C43.3116 20.593 45.1295 21.8077 46.6608 23.339C48.1921 24.8703 49.4069 26.6883 50.2356 28.689C51.0643 30.6898 51.4909 32.8342 51.4909 34.9998C51.4909 37.1655 51.0643 39.3099 50.2356 41.3106C49.4069 43.3114 48.1921 45.1293 46.6608 46.6607C43.5682 49.7533 39.3736 51.4907 35 51.4907C30.6263 51.4907 26.4318 49.7533 23.3392 46.6607C20.2465 43.568 18.5091 39.3735 18.5091 34.9998C18.5091 30.6262 20.2465 26.4316 23.3392 23.339ZM55.1483 20.9648C55.5278 20.6069 55.8316 20.1764 56.0417 19.6989C56.2518 19.2214 56.364 18.7067 56.3716 18.185C56.3792 17.6634 56.2821 17.1456 56.086 16.6622C55.8899 16.1788 55.5987 15.7397 55.2299 15.3708C54.861 15.0019 54.4219 14.7108 53.9385 14.5147C53.4551 14.3186 52.9372 14.2214 52.4156 14.229C51.894 14.2366 51.3792 14.3488 50.9017 14.559C50.4243 14.7691 49.9938 15.0729 49.6358 15.4523C48.9396 16.1903 48.5585 17.1706 48.5733 18.185C48.5881 19.1995 48.9976 20.1682 49.715 20.8856C50.4324 21.603 51.4012 22.0126 52.4156 22.0274C53.43 22.0422 54.4103 21.661 55.1483 20.9648Z" fill="#1B1B1B"/>
</svg>
