<svg width="71" height="72" viewBox="0 0 71 72" fill="none" xmlns="http://www.w3.org/2000/svg">
<path d="M40.0677 31.4324C37.6445 29.0102 34.3585 27.6495 30.9323 27.6495C27.5061 27.6495 24.2202 29.0102 21.797 31.4324L12.6587 40.5677C10.2355 42.991 8.87411 46.2776 8.87411 49.7045C8.87411 53.1315 10.2355 56.4181 12.6587 58.8414C15.0819 61.2646 18.3685 62.626 21.7955 62.626C25.2225 62.626 28.5091 61.2646 30.9323 58.8414L35.5 54.2737" stroke="#1B1B1B" stroke-width="5" stroke-linecap="round" stroke-linejoin="round"/>
<path d="M30.9323 40.5677C33.3555 42.9899 36.6415 44.3506 40.0677 44.3506C43.4939 44.3506 46.7798 42.9899 49.203 40.5677L58.3413 31.4324C60.7645 29.0091 62.1259 25.7225 62.1259 22.2955C62.1259 18.8686 60.7645 15.582 58.3413 13.1587C55.9181 10.7355 52.6314 9.37415 49.2045 9.37415C45.7775 9.37415 42.4909 10.7355 40.0677 13.1587L35.5 17.7264" stroke="#1B1B1B" stroke-width="5" stroke-linecap="round" stroke-linejoin="round"/>
</svg>
