<svg width="70" height="70" viewBox="0 0 70 70" fill="none" xmlns="http://www.w3.org/2000/svg">
<path fill-rule="evenodd" clip-rule="evenodd" d="M2.91666 8.27734C2.91666 6.85556 3.48146 5.49201 4.48681 4.48666C5.49216 3.48131 6.85571 2.91651 8.27749 2.91651H61.7167C62.4212 2.91536 63.1192 3.05319 63.7704 3.32212C64.4217 3.59105 65.0135 3.98579 65.512 4.48374C66.0105 4.98169 66.4058 5.57308 66.6755 6.22404C66.9451 6.875 67.0837 7.57275 67.0833 8.27734V61.7165C67.0841 62.4212 66.9459 63.1192 66.6767 63.7705C66.4074 64.4217 66.0124 65.0135 65.5142 65.512C65.016 66.0105 64.4244 66.4058 63.7733 66.6754C63.1222 66.945 62.4243 67.0836 61.7196 67.0832H8.27749C7.57325 67.0832 6.87591 66.9444 6.22531 66.6748C5.57472 66.4052 4.98361 66.0101 4.48578 65.512C3.98794 65.0139 3.59312 64.4226 3.32389 63.7718C3.05465 63.1211 2.91627 62.4237 2.91666 61.7194V8.27734ZM28.315 27.3815H37.0037V31.7448C38.2579 29.2365 41.4662 26.979 46.2875 26.979C55.5304 26.979 57.7208 31.9753 57.7208 41.1423V58.1232H48.3671V43.2307C48.3671 38.0098 47.1129 35.064 43.9279 35.064C39.5092 35.064 37.6717 38.2403 37.6717 43.2307V58.1232H28.315V27.3815ZM12.2733 57.7236H21.63V26.979H12.2733V57.7207V57.7236ZM22.9687 16.9515C22.9864 17.7526 22.8438 18.5492 22.5494 19.2945C22.2551 20.0398 21.8148 20.7188 21.2544 21.2916C20.6941 21.8644 20.0249 22.3196 19.2863 22.6303C18.5477 22.941 17.7544 23.1011 16.9531 23.1011C16.1518 23.1011 15.3585 22.941 14.6199 22.6303C13.8813 22.3196 13.2122 21.8644 12.6518 21.2916C12.0915 20.7188 11.6512 20.0398 11.3568 19.2945C11.0624 18.5492 10.9198 17.7526 10.9375 16.9515C10.9721 15.379 11.6211 13.8826 12.7455 12.7827C13.8699 11.6828 15.3802 11.0669 16.9531 11.0669C18.526 11.0669 20.0364 11.6828 21.1607 12.7827C22.2851 13.8826 22.9341 15.379 22.9687 16.9515Z" fill="#1B1B1B"/>
</svg>
